<svg width="218" height="91" viewBox="0 0 218 91" fill="none" xmlns="http://www.w3.org/2000/svg">
<path d="M58.36 33.408H31.48V56.448H21.88V5.06396L20 1.92H58.36V33.408ZM48.76 24.96V10.368H31.48V24.96H48.76Z" fill="#F8F9FA"/>
<path d="M92.9613 42.048H73.7613V48H92.9613V56.448H64.1613V19.2H92.9613V42.048ZM83.3613 34.368V27.648H73.7613V34.368H83.3613Z" fill="#F8F9FA"/>
<path d="M127.555 56.448H98.755V33.6H117.955V27.648H98.755V19.2H127.555V56.448ZM117.955 48V41.28H108.355V48H117.955Z" fill="#F8F9FA"/>
<path d="M164.645 56.448H153.125L142.949 43.296V56.448H133.349V2.56396L131.5 0H142.949V28.128L151.781 19.2H164.165L148.133 35.424L164.645 56.448Z" fill="#F8F9FA"/>
<path d="M197.323 19.2L178.315 75.264H168.235L176.299 52.224L164.971 19.2H175.147L181.291 37.248L187.147 19.2H197.323Z" fill="#F8F9FA"/>
<path d="M20.5 68.564H160M69.5 6.56403H124.5M150 6.56403H198M186 68.564H198" stroke="#0075FF" stroke-width="2" stroke-linecap="round"/>
<circle cx="5.5" cy="33.564" r="5.5" fill="#F8F9FA"/>
<circle cx="212.5" cy="33.564" r="5.5" fill="#F8F9FA"/>
<path d="M69.1826 88V78.0469H72.5938C73.7194 78.0469 74.5762 78.2725 75.1641 78.7236C75.752 79.1748 76.0459 79.847 76.0459 80.7402C76.0459 81.196 75.9229 81.6061 75.6768 81.9707C75.4307 82.3353 75.0706 82.6178 74.5967 82.8184C75.1344 82.9642 75.5492 83.2399 75.8408 83.6455C76.137 84.0465 76.2852 84.5296 76.2852 85.0947C76.2852 86.029 75.9844 86.7467 75.3828 87.248C74.7858 87.7493 73.929 88 72.8125 88H69.1826ZM70.9121 83.5088V86.6191H72.833C73.3753 86.6191 73.7992 86.4847 74.1045 86.2158C74.4098 85.9469 74.5625 85.5732 74.5625 85.0947C74.5625 84.0602 74.0339 83.5316 72.9766 83.5088H70.9121ZM70.9121 82.2373H72.6074C73.1452 82.2373 73.5645 82.1165 73.8652 81.875C74.1706 81.6289 74.3232 81.2826 74.3232 80.8359C74.3232 80.3438 74.182 79.9883 73.8994 79.7695C73.6214 79.5508 73.1862 79.4414 72.5938 79.4414H70.9121V82.2373Z" fill="#F8F9FA"/>
<path d="M90.6734 88C90.6005 87.8587 90.5367 87.6286 90.482 87.3096C89.9534 87.861 89.3062 88.1367 88.5406 88.1367C87.7978 88.1367 87.1917 87.9248 86.7223 87.501C86.2529 87.0771 86.0182 86.5531 86.0182 85.9287C86.0182 85.1403 86.3098 84.5365 86.8932 84.1172C87.4811 83.6934 88.3196 83.4814 89.4088 83.4814H90.4273V82.9961C90.4273 82.6133 90.3202 82.3079 90.1061 82.0801C89.8919 81.8477 89.566 81.7314 89.1285 81.7314C88.7503 81.7314 88.4404 81.8271 88.1988 82.0186C87.9573 82.2054 87.8365 82.4447 87.8365 82.7363H86.1754C86.1754 82.3307 86.3098 81.9525 86.5787 81.6016C86.8476 81.2461 87.2122 80.9681 87.6725 80.7676C88.1373 80.5671 88.6546 80.4668 89.2242 80.4668C90.0901 80.4668 90.7805 80.6855 91.2955 81.123C91.8105 81.556 92.0748 82.1667 92.0885 82.9551V86.291C92.0885 86.9564 92.1819 87.4873 92.3687 87.8838V88H90.6734ZM88.8482 86.8037C89.1764 86.8037 89.484 86.724 89.7711 86.5645C90.0628 86.4049 90.2815 86.1908 90.4273 85.9219V84.5273H89.5318C88.9166 84.5273 88.454 84.6344 88.1441 84.8486C87.8342 85.0628 87.6793 85.3659 87.6793 85.7578C87.6793 86.0768 87.7841 86.332 87.9937 86.5234C88.2079 86.7103 88.4928 86.8037 88.8482 86.8037Z" fill="#F8F9FA"/>
<path d="M106.101 82.1211C105.882 82.0846 105.656 82.0664 105.424 82.0664C104.663 82.0664 104.15 82.3581 103.886 82.9414V88H102.225V80.6035H103.811L103.852 81.4307C104.253 80.7881 104.809 80.4668 105.52 80.4668C105.757 80.4668 105.953 80.4987 106.108 80.5625L106.101 82.1211Z" fill="#F8F9FA"/>
<path d="M122.041 84.377C122.041 85.5254 121.783 86.4391 121.268 87.1182C120.758 87.7972 120.054 88.1367 119.156 88.1367C118.29 88.1367 117.616 87.8245 117.133 87.2002L117.051 88H115.547V77.5H117.208V81.3145C117.686 80.7493 118.331 80.4668 119.142 80.4668C120.045 80.4668 120.753 80.8018 121.268 81.4717C121.783 82.1416 122.041 83.0781 122.041 84.2812V84.377ZM120.38 84.2334C120.38 83.4313 120.238 82.8298 119.956 82.4287C119.673 82.0277 119.263 81.8271 118.725 81.8271C118.005 81.8271 117.499 82.1416 117.208 82.7705V85.8193C117.504 86.4619 118.014 86.7832 118.739 86.7832C119.259 86.7832 119.66 86.5895 119.942 86.2021C120.225 85.8148 120.371 85.2292 120.38 84.4453V84.2334Z" fill="#F8F9FA"/>
<path d="M135.096 88.1367C134.043 88.1367 133.189 87.8063 132.533 87.1455C131.881 86.4801 131.555 85.596 131.555 84.4932V84.2881C131.555 83.5498 131.696 82.8913 131.979 82.3125C132.266 81.7292 132.667 81.2757 133.182 80.9521C133.697 80.6286 134.271 80.4668 134.905 80.4668C135.912 80.4668 136.689 80.7881 137.236 81.4307C137.787 82.0732 138.063 82.9824 138.063 84.1582V84.8281H133.23C133.28 85.4388 133.483 85.9219 133.838 86.2773C134.198 86.6328 134.649 86.8105 135.192 86.8105C135.953 86.8105 136.573 86.5029 137.051 85.8877L137.947 86.7422C137.65 87.1842 137.254 87.5283 136.757 87.7744C136.265 88.016 135.711 88.1367 135.096 88.1367ZM134.898 81.7998C134.442 81.7998 134.073 81.9593 133.79 82.2783C133.512 82.5973 133.335 83.0417 133.257 83.6113H136.422V83.4883C136.386 82.9323 136.238 82.513 135.978 82.2305C135.718 81.9434 135.358 81.7998 134.898 81.7998Z" fill="#F8F9FA"/>
<path d="M151.631 82.1211C151.412 82.0846 151.187 82.0664 150.954 82.0664C150.193 82.0664 149.68 82.3581 149.416 82.9414V88H147.755V80.6035H149.341L149.382 81.4307C149.783 80.7881 150.339 80.4668 151.05 80.4668C151.287 80.4668 151.483 80.4987 151.638 80.5625L151.631 82.1211Z" fill="#F8F9FA"/>
</svg>
