<svg width="32" height="11" viewBox="0 0 32 11" fill="none" xmlns="http://www.w3.org/2000/svg">
<path d="M16 7.18887V1.04247C17.6258 -0.251518 21.1086 -1.14939 23.8038 3.46868C26.7303 8.48284 30.307 7.02712 30.7947 5.2479C31.0164 4.43917 31.4683 3.52653 31.7702 4.27742C32.7457 6.70363 30.6322 10.5856 25.1045 10.9091C20.6823 11.1678 17.1923 8.53676 16 7.18887Z" fill="#F8F9FA"/>
<path d="M16 7.18887V1.04247C14.3742 -0.251518 10.8914 -1.14939 8.19617 3.46868C5.26974 8.48284 1.69299 7.02712 1.20525 5.2479C0.983547 4.43917 0.531671 3.52653 0.229769 4.27742C-0.745709 6.70363 1.36783 10.5856 6.89554 10.9091C11.3177 11.1678 14.8078 8.53676 16 7.18887Z" fill="#F8F9FA"/>
</svg>
