<svg width="22" height="32" viewBox="0 0 22 32" fill="none" xmlns="http://www.w3.org/2000/svg">
<path fill-rule="evenodd" clip-rule="evenodd" d="M20.7347 1.10652C21.1157 -0.0363316 19.9184 -0.362864 19.4286 0.453463L4.78208 24.6319C4.45568 24.5393 4.11118 24.4897 3.7551 24.4897C1.68122 24.4897 0 26.171 0 28.2449C0 30.3187 1.68122 32 3.7551 32C5.82899 32 7.51021 30.3187 7.51021 28.2449C7.51021 27.0388 6.94165 25.9656 6.05794 25.2785L8.1633 21.8776C8.81636 20.898 10.7102 19.0694 13.0613 19.5918L20.7347 1.10652ZM12.7348 17.143C12.7348 17.5938 12.3693 17.9593 11.9184 17.9593C11.4676 17.9593 11.1021 17.5938 11.1021 17.143C11.1021 16.6921 11.4676 16.3267 11.9184 16.3267C12.3693 16.3267 12.7348 16.6921 12.7348 17.143ZM10.449 13.5511L7.83672 17.4694C5.76869 12.7892 1.66529 2.71025 1.14284 1.1429C0.761888 4.4823e-05 1.95917 -0.326488 2.44896 0.489839L10.449 13.5511ZM15.3529 24.8688L12.7347 20.7348L14.0409 19.9185L16.7178 24.1451C17.0472 24.0506 17.3953 24 17.7551 24C19.829 24 21.5102 25.6812 21.5102 27.7551C21.5102 29.829 19.829 31.5102 17.7551 31.5102C15.6812 31.5102 14 29.829 14 27.7551C14 26.5949 14.5262 25.5576 15.3529 24.8688ZM3.7551 30.85C5.19386 30.85 6.36021 29.6836 6.36021 28.2449C6.36021 26.8061 5.19386 25.6397 3.7551 25.6397C2.31634 25.6397 1.15 26.8061 1.15 28.2449C1.15 29.6836 2.31634 30.85 3.7551 30.85ZM20.3602 27.7551C20.3602 29.1939 19.1939 30.3602 17.7551 30.3602C16.3163 30.3602 15.15 29.1939 15.15 27.7551C15.15 26.3163 16.3163 25.15 17.7551 25.15C19.1939 25.15 20.3602 26.3163 20.3602 27.7551Z" fill="#F8F9FA"/>
</svg>
